<svg height="120" viewBox="0 0 526 120" width="526" xmlns="http://www.w3.org/2000/svg"><g fill="#070707"><path d="m20.2434 0h-20.2434v118.13h73.4374v-17.253h-53.194z"/><path d="m106.853 53.7776h-19.6152v64.3464h19.6152z"/><path d="m164.596 115.794-24.949-81.4482h-19.615l26.206 83.7812h36.716l26.206-83.7812h-19.773z"/><path d="m257.821 32.4892c-25.424 0-41.585 18.0324-41.585 43.677 0 25.4928 15.691 43.8338 41.585 43.8338 19.769 0 34.05-8.705 39.384-26.5806h-19.945c-2.979 8.0826-8.477 12.9096-19.304 12.9096-11.925 0-20.238-8.239-21.807-24.3994h62.452c.299-2.0603.454-4.1385.466-6.2198.005-26.1242-16.315-43.2206-41.246-43.2206zm-21.518 35.9034c2.043-15.0723 10.045-22.2235 21.518-22.2235 12.079 0 20.239 8.8571 21.184 22.2235z"/><path d="m413.768 0h-25.419l-49.27 54.0925v-54.0925h-20.244v118.13h20.244v-59.685l54.292 59.685h25.89l-56.802-62.1747z"/><path d="m447.653 34.3458h-19.615v64.3468h19.615z"/><path d="m87.24 34.3458h-19.615v19.4295h19.615z"/><path d="m467.273 98.6996h-19.615v19.4294h19.615z"/><path d="m525.882 98.6996h-19.615v19.4294h19.615z"/><path d="m525.88 53.779v-19.4294h-19.615v-34.3496h-19.615v34.3496h-19.615v19.4294h19.615v44.9219h19.615v-44.9219z"/></g></svg>