<svg width="20" height="20" viewBox="0 0 20 20" fill="none" xmlns="http://www.w3.org/2000/svg">
<path d="M7.80667 9.29841C9.45384 9.29841 10.7891 7.96312 10.7891 6.31595C10.7891 4.66879 9.45384 3.3335 7.80667 3.3335C6.15951 3.3335 4.82422 4.66879 4.82422 6.31595C4.82422 7.96312 6.15951 9.29841 7.80667 9.29841Z" stroke="#F8F8F8" stroke-width="1.66667" stroke-linecap="round" stroke-linejoin="round"/>
<path d="M15.2638 7.06152V11.5352M3.33398 16.7545V15.2633C3.33398 14.4723 3.64821 13.7137 4.20753 13.1544C4.76684 12.595 5.52544 12.2808 6.31644 12.2808H9.2989C10.0899 12.2808 10.8485 12.595 11.4078 13.1544C11.9671 13.7137 12.2814 14.4723 12.2814 15.2633V16.7545H3.33398ZM13.027 9.29837H17.5007H13.027Z" stroke="#F8F8F8" stroke-width="1.66667" stroke-linecap="round" stroke-linejoin="round"/>
</svg>
