<svg width="16" height="16" viewBox="0 0 16 16" fill="none" xmlns="http://www.w3.org/2000/svg">
<path fill-rule="evenodd" clip-rule="evenodd" d="M8.9613 0.894299C8.87508 -0.2981 7.12492 -0.2981 7.0387 0.894299C6.97276 1.80626 5.79274 2.12245 5.27966 1.36563C4.60879 0.376096 3.09311 1.25118 3.61464 2.32693C4.01352 3.14968 3.14968 4.01352 2.32693 3.61464C1.25118 3.09311 0.376096 4.60879 1.36563 5.27966C2.12245 5.79274 1.80626 6.97276 0.894299 7.0387C-0.2981 7.12492 -0.2981 8.87508 0.894299 8.9613C1.80626 9.02724 2.12245 10.2073 1.36563 10.7203C0.376096 11.3912 1.25118 12.9069 2.32693 12.3854C3.14968 11.9865 4.01352 12.8503 3.61464 13.6731C3.09311 14.7488 4.60879 15.6239 5.27966 14.6344C5.79274 13.8776 6.97276 14.1937 7.0387 15.1057C7.12492 16.2981 8.87508 16.2981 8.9613 15.1057C9.02724 14.1937 10.2073 13.8776 10.7203 14.6344C11.3912 15.6239 12.9069 14.7488 12.3854 13.6731C11.9865 12.8503 12.8503 11.9865 13.6731 12.3854C14.7488 12.9069 15.6239 11.3912 14.6344 10.7203C13.8776 10.2073 14.1937 9.02724 15.1057 8.9613C16.2981 8.87508 16.2981 7.12492 15.1057 7.0387C14.1937 6.97276 13.8776 5.79274 14.6344 5.27966C15.6239 4.60879 14.7488 3.09311 13.6731 3.61464C12.8503 4.01352 11.9865 3.14968 12.3854 2.32693C12.9069 1.25118 11.3912 0.376096 10.7203 1.36563C10.2073 2.12245 9.02724 1.80626 8.9613 0.894299ZM8 13C10.7614 13 13 10.7614 13 8C13 5.23858 10.7614 3 8 3C5.23858 3 3 5.23858 3 8C3 10.7614 5.23858 13 8 13Z" fill="currentcolor"/>
</svg>

