<svg width="20" height="20" viewBox="0 0 20 20" fill="none" xmlns="http://www.w3.org/2000/svg">
<path d="M12.4961 4.16699C12.4961 2.78628 11.3768 1.66699 9.99609 1.66699C8.61538 1.66699 7.49609 2.78628 7.49609 4.16699V8.33366C7.49609 9.71437 8.61538 10.8337 9.99609 10.8337C11.3768 10.8337 12.4961 9.71437 12.4961 8.33366V4.16699Z" stroke="#EAECEF" stroke-width="1.66667" stroke-linecap="round" stroke-linejoin="round"/>
<path d="M4.16406 8.3335C4.16406 9.88059 4.77864 11.3643 5.87261 12.4583C6.96657 13.5522 8.4503 14.1668 9.9974 14.1668M9.9974 14.1668C11.5445 14.1668 13.0282 13.5522 14.1222 12.4583C15.2161 11.3643 15.8307 9.88059 15.8307 8.3335M9.9974 14.1668V17.5002M6.66406 17.5002H13.3307" stroke="#EAECEF" stroke-width="1.66667" stroke-linecap="round" stroke-linejoin="round"/>
<line x1="2.84257" y1="1.66699" x2="18.1632" y2="16.9876" stroke="#F84135" stroke-width="1.66667" stroke-linecap="round"/>
</svg>
