<svg fill="currentColor" height="16" viewBox="0 0 16 16" width="16" xmlns="http://www.w3.org/2000/svg"><path d="m12.2266 11.5195c.6848-.8216 1.1347-1.84606 1.2463-2.9701.0272-.27479-.1734-.51967-.4482-.54695-.2748-.02729-.5197.17336-.5469.44815-.0881.88718-.4341 1.6986-.9618 2.3583l-1.0706-1.07063c.3492-.49041.5546-1.09036.5546-1.73827v-5c0-1.65685-1.34315-3-3-3-1.65686 0-3 1.34315-3 3v1.29289l-3.64645-3.646443c-.19526-.195263-.511841-.195263-.707103 0-.195263.195262-.195263.511843 0 .707103l13.999953 14.00005c.1953.1952.5119.1952.7072 0 .1952-.1953.1952-.5119 0-.7072z"/><path d="m8 12.5c.68323 0 1.33093-.1523 1.911-.4248l.7432.7432c-.6492.3583-1.37843.5893-2.1542.6592v1.5224h2c.2761 0 .5.2239.5.5s-.2239.5-.5.5h-5c-.27614 0-.5-.2239-.5-.5s.22386-.5.5-.5h2v-1.5224c-2.62212-.2363-4.71317-2.3126-4.97287-4.9282-.02728-.27479.17337-.51967.44816-.54695.27479-.02729.51967.17336.54695.44815.22572 2.2735 2.14465 4.0494 4.47776 4.0494z"/><path d="m8.74305 10.9073-3.74305-3.74309v.83579c0 1.65685 1.34314 3 3 3 .25647 0 .50543-.0322.74305-.0927z"/></svg>