<svg width="16" height="16" viewBox="0 0 16 16" fill="none" xmlns="http://www.w3.org/2000/svg">
<path d="M9.99688 3.33359C9.99688 2.22903 9.11074 1.34359 7.99688 1.34359C6.88301 1.34359 6.00215 2.22903 6.00215 3.33359V6.66692C6.00215 7.77148 6.88301 8.65692 7.99688 8.65692C9.11074 8.65692 9.99688 7.77148 9.99688 6.66692V3.33359Z" stroke="#EAECEF" stroke-width="1.33333" stroke-linecap="round" stroke-linejoin="round"/>
<path d="M3.33125 6.6668C3.33125 7.89647 3.82292 9.09145 4.69805 10.0002C5.57318 10.9089 6.76816 11.3335 7.99805 11.3335M7.99805 11.3335C9.22794 11.3335 10.4229 10.9089 11.298 10.0002C12.1731 9.09145 12.6648 7.89647 12.6648 6.6668M7.99805 11.3335V14.0002M5.33125 14.0002H10.6648" stroke="#EAECEF" stroke-width="1.33333" stroke-linecap="round" stroke-linejoin="round"/>
<line x1="2.27406" y1="1.34359" x2="14.5305" y2="13.5902" stroke="#F84135" stroke-width="1.33333" stroke-linecap="round"/>
</svg>
