<svg width="16" height="5" viewBox="0 0 16 5" fill="currentColor" xmlns="http://www.w3.org/2000/svg">
<path d="M0 0.5C0 0.223858 0.223858 0 0.5 0H3.5C3.77614 0 4 0.223858 4 0.5V4.5C4 4.77614 3.77614 5 3.5 5H0.5C0.223858 5 0 4.77614 0 4.5V0.5Z"/>
<path d="M6 4.5C6 4.22386 6.22386 4 6.5 4H9.5C9.77614 4 10 4.22386 10 4.5C10 4.77614 9.77614 5 9.5 5H6.5C6.22386 5 6 4.77614 6 4.5Z"/>
<path d="M12 4.5C12 4.22386 12.2239 4 12.5 4H15.5C15.7761 4 16 4.22386 16 4.5C16 4.77614 15.7761 5 15.5 5H12.5C12.2239 5 12 4.77614 12 4.5Z"/>
<path d="M0 0.5C0 0.223858 0.223858 0 0.5 0H3.5C3.77614 0 4 0.223858 4 0.5V4.5C4 4.77614 3.77614 5 3.5 5H0.5C0.223858 5 0 4.77614 0 4.5V0.5Z"/>
<path d="M6 4.5C6 4.22386 6.22386 4 6.5 4H9.5C9.77614 4 10 4.22386 10 4.5C10 4.77614 9.77614 5 9.5 5H6.5C6.22386 5 6 4.77614 6 4.5Z"/>
<path d="M12 4.5C12 4.22386 12.2239 4 12.5 4H15.5C15.7761 4 16 4.22386 16 4.5C16 4.77614 15.7761 5 15.5 5H12.5C12.2239 5 12 4.77614 12 4.5Z"/>
</svg>
