<svg xmlns="http://www.w3.org/2000/svg" width="16" height="16" fill="currentcolor">
  <path d="M0 11.5a.5.5 0 0 1 .5-.5h3a.5.5 0 0 1 .5.5v4a.5.5 0 0 1-.5.5h-3a.5.5 0 0 1-.5-.5zM6 6.5a.5.5 0 0 1 .5-.5h3a.5.5 0 0 1 .5.5v9a.5.5 0 0 1-.5.5h-3a.5.5 0 0 1-.5-.5zM12 .5a.5.5 0 0 1 .5-.5h3a.5.5 0 0 1 .5.5v15a.5.5 0 0 1-.5.5h-3a.5.5 0 0 1-.5-.5z"/>
  <path d="M0 11.5a.5.5 0 0 1 .5-.5h3a.5.5 0 0 1 .5.5v4a.5.5 0 0 1-.5.5h-3a.5.5 0 0 1-.5-.5zM6 6.5a.5.5 0 0 1 .5-.5h3a.5.5 0 0 1 .5.5v9a.5.5 0 0 1-.5.5h-3a.5.5 0 0 1-.5-.5zM12 .5a.5.5 0 0 1 .5-.5h3a.5.5 0 0 1 .5.5v15a.5.5 0 0 1-.5.5h-3a.5.5 0 0 1-.5-.5z"/>
</svg>
