<svg width="20" height="16" viewBox="0 0 20 16" fill="none" xmlns="http://www.w3.org/2000/svg">
<path fill-rule="evenodd" clip-rule="evenodd" d="M0 2.75C0 1.23122 1.23122 0 2.75 0H17.25C18.7688 0 20 1.23122 20 2.75V13.25C20 14.7688 18.7688 16 17.25 16H2.75C1.23122 16 0 14.7688 0 13.25V2.75ZM2.75 1.5C2.05964 1.5 1.5 2.05964 1.5 2.75V13.25C1.5 13.9404 2.05964 14.5 2.75 14.5H17.25C17.9404 14.5 18.5 13.9404 18.5 13.25V2.75C18.5 2.05964 17.9404 1.5 17.25 1.5H2.75Z" fill="currentColor"/>
<path fill-rule="evenodd" clip-rule="evenodd" d="M9.46967 4.21967C9.76256 3.92678 10.2374 3.92678 10.5303 4.21967L12.7803 6.46967C13.0732 6.76256 13.0732 7.23744 12.7803 7.53033C12.4874 7.82322 12.0126 7.82322 11.7197 7.53033L10.75 6.56066V11.25C10.75 11.6642 10.4142 12 10 12C9.58579 12 9.25 11.6642 9.25 11.25V6.56066L8.28033 7.53033C7.98744 7.82322 7.51256 7.82322 7.21967 7.53033C6.92678 7.23744 6.92678 6.76256 7.21967 6.46967L9.46967 4.21967Z" fill="currentColor"/>
</svg>
