<svg width="16" height="16" viewBox="0 0 16 16" fill="none" xmlns="http://www.w3.org/2000/svg">
<path fill-rule="evenodd" clip-rule="evenodd" d="M8 0C8.41421 0 8.75 0.335786 8.75 0.75V3.25C8.75 3.66421 8.41421 4 8 4C7.58579 4 7.25 3.66421 7.25 3.25V0.75C7.25 0.335786 7.58579 0 8 0Z" fill="currentColor"/>
<path opacity="0.7" fill-rule="evenodd" clip-rule="evenodd" d="M8 12C8.41421 12 8.75 12.3358 8.75 12.75V15.25C8.75 15.6642 8.41421 16 8 16C7.58579 16 7.25 15.6642 7.25 15.25V12.75C7.25 12.3358 7.58579 12 8 12Z" fill="currentColor"/>
<path fill-rule="evenodd" clip-rule="evenodd" d="M12 1.0718C12.3587 1.2789 12.4816 1.7376 12.2745 2.09632L11.0245 4.26138C10.8174 4.6201 10.3587 4.743 9.99998 4.5359C9.64126 4.32879 9.51836 3.8701 9.72546 3.51138L10.9755 1.34632C11.1826 0.987596 11.6413 0.86469 12 1.0718Z" fill="currentColor"/>
<path opacity="0.6" fill-rule="evenodd" clip-rule="evenodd" d="M5.99998 11.4641C6.3587 11.6712 6.48161 12.1299 6.2745 12.4886L5.0245 14.6537C4.8174 15.0124 4.3587 15.1353 3.99998 14.9282C3.64126 14.7211 3.51836 14.2624 3.72546 13.9037L4.97546 11.7386C5.18257 11.3799 5.64126 11.257 5.99998 11.4641Z" fill="currentColor"/>
<path fill-rule="evenodd" clip-rule="evenodd" d="M14.9282 4C15.1353 4.35872 15.0124 4.81741 14.6537 5.02452L12.4886 6.27452C12.1299 6.48163 11.6712 6.35872 11.4641 6C11.257 5.64128 11.3799 5.18259 11.7386 4.97548L13.9037 3.72548C14.2624 3.51837 14.7211 3.64128 14.9282 4Z" fill="currentColor"/>
<path opacity="0.5" fill-rule="evenodd" clip-rule="evenodd" d="M4.53589 10C4.743 10.3587 4.62009 10.8174 4.26137 11.0245L2.09631 12.2745C1.73759 12.4816 1.27889 12.3587 1.07179 12C0.86468 11.6413 0.987586 11.1826 1.34631 10.9755L3.51137 9.72548C3.87009 9.51837 4.32878 9.64128 4.53589 10Z" fill="currentColor"/>
<path fill-rule="evenodd" clip-rule="evenodd" d="M16 8C16 8.41421 15.6642 8.75 15.25 8.75L12.75 8.75C12.3358 8.75 12 8.41421 12 8C12 7.58579 12.3358 7.25 12.75 7.25L15.25 7.25C15.6642 7.25 16 7.58579 16 8Z" fill="currentColor"/>
<path opacity="0.4" fill-rule="evenodd" clip-rule="evenodd" d="M4 8C4 8.41421 3.66421 8.75 3.25 8.75L0.75 8.75C0.335786 8.75 -4.29743e-08 8.41421 -2.76846e-08 8C-1.23948e-08 7.58579 0.335786 7.25 0.75 7.25L3.25 7.25C3.66421 7.25 4 7.58579 4 8Z" fill="currentColor"/>
<path opacity="0.9" fill-rule="evenodd" clip-rule="evenodd" d="M14.9282 12C14.7211 12.3587 14.2624 12.4816 13.9037 12.2745L11.7386 11.0245C11.3799 10.8174 11.257 10.3587 11.4641 10C11.6712 9.64128 12.1299 9.51838 12.4886 9.72548L14.6537 10.9755C15.0124 11.1826 15.1353 11.6413 14.9282 12Z" fill="currentColor"/>
<path opacity="0.3" fill-rule="evenodd" clip-rule="evenodd" d="M4.53589 6C4.32878 6.35872 3.87009 6.48163 3.51137 6.27452L1.34631 5.02452C0.987587 4.81741 0.86468 4.35872 1.07179 4C1.27889 3.64128 1.73759 3.51838 2.09631 3.72548L4.26137 4.97548C4.62009 5.18259 4.743 5.64128 4.53589 6Z" fill="currentColor"/>
<path opacity="0.8" fill-rule="evenodd" clip-rule="evenodd" d="M12 14.9282C11.6413 15.1353 11.1826 15.0124 10.9755 14.6537L9.7255 12.4886C9.51839 12.1299 9.6413 11.6712 10 11.4641C10.3587 11.257 10.8174 11.3799 11.0245 11.7386L12.2745 13.9037C12.4816 14.2624 12.3587 14.7211 12 14.9282Z" fill="currentColor"/>
<path opacity="0.2" fill-rule="evenodd" clip-rule="evenodd" d="M6.00002 4.5359C5.6413 4.743 5.1826 4.6201 4.9755 4.26138L3.7255 2.09632C3.51839 1.7376 3.6413 1.2789 4.00002 1.0718C4.35874 0.86469 4.81743 0.987596 5.02454 1.34632L6.27454 3.51138C6.48164 3.8701 6.35874 4.32879 6.00002 4.5359Z" fill="currentColor"/>
</svg>
