<svg fill="currentColor" height="16" viewBox="0 0 16 16" width="16" xmlns="http://www.w3.org/2000/svg"><path d="m1.35355.646447c-.19526-.195263-.511841-.195263-.707103 0-.195263.195262-.195263.511843 0 .707103l13.999953 14.00005c.1953.1952.5119.1952.7072 0 .1952-.1953.1952-.5119 0-.7072l-4.3536-4.3535v-5.7929c0-.82843-.6716-1.5-1.5-1.5h-5.79289z"/><path d="m0 4.5c0-.6315.390238-1.17185.942719-1.39307l9.532681 9.53267c-.2623.2247-.60298.3604-.9754.3604h-8c-.828427 0-1.5-.6716-1.5-1.5z"/><path d="m15.2 3.6-2.8 2.1c-.2518.18885-.4.48524-.4.8v3c0 .31476.1482.6111.4.8l2.8 2.1c.3296.2472.8.012.8-.4v-8c0-.41202-.4704-.64721-.8-.4z"/></svg>