<svg width="16" height="16" viewBox="0 0 16 16" fill="none" xmlns="http://www.w3.org/2000/svg">
<path d="M1.35355 0.646447C1.15829 0.451184 0.841709 0.451184 0.646447 0.646447C0.451184 0.841709 0.451184 1.15829 0.646447 1.35355L14.6464 15.3536C14.8417 15.5488 15.1583 15.5488 15.3536 15.3536C15.5488 15.1583 15.5488 14.8417 15.3536 14.6464L11 10.2929V4.5C11 3.67157 10.3284 3 9.5 3H3.70711L1.35355 0.646447Z" fill="black"/>
<path d="M0 4.5C0 3.8685 0.390238 3.32815 0.942719 3.10693L10.4754 12.6396C10.2131 12.8643 9.87242 13 9.5 13H1.5C0.671573 13 0 12.3284 0 11.5V4.5Z" fill="black"/>
<path d="M15.2 3.6L12.4 5.7C12.1482 5.88885 12 6.18524 12 6.5V9.5C12 9.81476 12.1482 10.1111 12.4 10.3L15.2 12.4C15.5296 12.6472 16 12.412 16 12V4C16 3.58798 15.5296 3.35279 15.2 3.6Z" fill="black"/>
</svg>
