<svg width="16" height="18" viewBox="0 0 16 18" fill="none" xmlns="http://www.w3.org/2000/svg">
<path fill-rule="evenodd" clip-rule="evenodd" d="M0 2.75C0 1.23122 1.23122 0 2.75 0H13.25C14.7688 0 16 1.23122 16 2.75V16.3438C16 16.6357 15.8305 16.9012 15.5657 17.0241C15.3008 17.147 14.9887 17.105 14.7657 16.9164L11.0749 13.7955C10.8492 13.6047 10.5633 13.5 10.2678 13.5H2.75C1.23122 13.5 0 12.2688 0 10.75V2.75ZM2.75 1.5C2.05964 1.5 1.5 2.05964 1.5 2.75V10.75C1.5 11.4404 2.05964 12 2.75 12H10.2678C10.9179 12 11.547 12.2303 12.0434 12.6501L14.5 14.7274V2.75C14.5 2.05964 13.9404 1.5 13.25 1.5H2.75Z" fill="currentColor"/>
<path fill-rule="evenodd" clip-rule="evenodd" d="M3 4.5C3 4.22386 3.22386 4 3.5 4H12.5C12.7761 4 13 4.22386 13 4.5C13 4.77614 12.7761 5 12.5 5H3.5C3.22386 5 3 4.77614 3 4.5ZM3 6.5C3 6.22386 3.22386 6 3.5 6H12.5C12.7761 6 13 6.22386 13 6.5C13 6.77614 12.7761 7 12.5 7H3.5C3.22386 7 3 6.77614 3 6.5ZM3 8.5C3 8.22386 3.22386 8 3.5 8H8.5C8.77614 8 9 8.22386 9 8.5C9 8.77614 8.77614 9 8.5 9H3.5C3.22386 9 3 8.77614 3 8.5Z" fill="currentColor"/>
</svg>
