<svg width="16" height="16" viewBox="0 0 16 16" fill="none" xmlns="http://www.w3.org/2000/svg">
<path fill-rule="evenodd" clip-rule="evenodd" d="M2 2.75C2 1.23122 3.23122 0 4.75 0H11.25C12.7688 0 14 1.23122 14 2.75V13.25C14 14.7688 12.7688 16 11.25 16H4.75C3.23122 16 2 14.7688 2 13.25V12.75C2 12.3358 2.33579 12 2.75 12C3.16421 12 3.5 12.3358 3.5 12.75V13.25C3.5 13.9404 4.05964 14.5 4.75 14.5H11.25C11.9404 14.5 12.5 13.9404 12.5 13.25V2.75C12.5 2.05964 11.9404 1.5 11.25 1.5H4.75C4.05964 1.5 3.5 2.05964 3.5 2.75V3.25C3.5 3.66421 3.16421 4 2.75 4C2.33579 4 2 3.66421 2 3.25V2.75Z" fill="currentColor"/>
<path fill-rule="evenodd" clip-rule="evenodd" d="M8.78033 7.46967C9.07322 7.76256 9.07322 8.23744 8.78033 8.53033L6.53033 10.7803C6.23744 11.0732 5.76256 11.0732 5.46967 10.7803C5.17678 10.4874 5.17678 10.0126 5.46967 9.71967L6.43934 8.75H1.75C1.33579 8.75 1 8.41421 1 8C1 7.58579 1.33579 7.25 1.75 7.25L6.43934 7.25L5.46967 6.28033C5.17678 5.98744 5.17678 5.51256 5.46967 5.21967C5.76256 4.92678 6.23744 4.92678 6.53033 5.21967L8.78033 7.46967Z" fill="currentColor"/>
</svg>
