<svg width="16" height="16" viewBox="0 0 16 16" fill="none" xmlns="http://www.w3.org/2000/svg">
<path d="M12.2266 11.5195C12.9114 10.6979 13.3613 9.67344 13.4729 8.5494C13.5001 8.27461 13.2995 8.02973 13.0247 8.00245C12.7499 7.97516 12.505 8.17581 12.4778 8.4506C12.3897 9.33778 12.0437 10.1492 11.516 10.8089L10.4454 9.73827C10.7946 9.24786 11 8.64791 11 8V3C11 1.34315 9.65685 0 8 0C6.34314 0 5 1.34315 5 3V4.29289L1.35355 0.646447C1.15829 0.451184 0.841709 0.451184 0.646447 0.646447C0.451184 0.841709 0.451184 1.15829 0.646447 1.35355L14.6464 15.3536C14.8417 15.5488 15.1583 15.5488 15.3536 15.3536C15.5488 15.1583 15.5488 14.8417 15.3536 14.6464L12.2266 11.5195Z" fill="black"/>
<path d="M8 12.5C8.68323 12.5 9.33093 12.3477 9.911 12.0752L10.6542 12.8184C10.005 13.1767 9.27577 13.4077 8.5 13.4776V15H10.5C10.7761 15 11 15.2239 11 15.5C11 15.7761 10.7761 16 10.5 16H5.5C5.22386 16 5 15.7761 5 15.5C5 15.2239 5.22386 15 5.5 15H7.5V13.4776C4.87788 13.2413 2.78683 11.165 2.52713 8.5494C2.49985 8.27461 2.7005 8.02973 2.97529 8.00245C3.25008 7.97516 3.49496 8.17581 3.52224 8.4506C3.74796 10.7241 5.66689 12.5 8 12.5Z" fill="black"/>
<path d="M8.74305 10.9073L5 7.16421V8C5 9.65685 6.34314 11 8 11C8.25647 11 8.50543 10.9678 8.74305 10.9073Z" fill="black"/>
</svg>
