<svg width="12" height="16" viewBox="0 0 12 16" fill="none" xmlns="http://www.w3.org/2000/svg">
<path fill-rule="evenodd" clip-rule="evenodd" d="M0.975287 8.00245C1.25008 7.97516 1.49496 8.17581 1.52224 8.4506C1.74796 10.7241 3.66689 12.5 6 12.5C8.33311 12.5 10.252 10.7241 10.4778 8.4506C10.505 8.17581 10.7499 7.97516 11.0247 8.00245C11.2995 8.02973 11.5001 8.27461 11.4729 8.5494C11.2132 11.165 9.12212 13.2413 6.5 13.4776V15H8.5C8.77614 15 9 15.2239 9 15.5C9 15.7761 8.77614 16 8.5 16H3.5C3.22386 16 3 15.7761 3 15.5C3 15.2239 3.22386 15 3.5 15H5.5V13.4776C2.87788 13.2413 0.786826 11.165 0.527134 8.5494C0.499851 8.27461 0.700496 8.02973 0.975287 8.00245Z" fill="black"/>
<path d="M3 3C3 1.34315 4.34314 0 6 0C7.65685 0 9 1.34315 9 3V8C9 9.65685 7.65685 11 6 11C4.34314 11 3 9.65685 3 8V3Z" fill="black"/>
</svg>
