<svg width="16" height="10" viewBox="0 0 16 10" fill="currentColor" xmlns="http://www.w3.org/2000/svg">
<path d="M0 5.5C0 5.22386 0.223858 5 0.5 5H3.5C3.77614 5 4 5.22386 4 5.5V9.5C4 9.77614 3.77614 10 3.5 10H0.5C0.223858 10 0 9.77614 0 9.5V5.5Z"/>
<path d="M6 0.5C6 0.223858 6.22386 0 6.5 0H9.5C9.77614 0 10 0.223858 10 0.5V9.5C10 9.77614 9.77614 10 9.5 10H6.5C6.22386 10 6 9.77614 6 9.5V0.5Z"/>
<path d="M12 9.5C12 9.22386 12.2239 9 12.5 9H15.5C15.7761 9 16 9.22386 16 9.5C16 9.77614 15.7761 10 15.5 10H12.5C12.2239 10 12 9.77614 12 9.5Z"/>
<path d="M0 5.5C0 5.22386 0.223858 5 0.5 5H3.5C3.77614 5 4 5.22386 4 5.5V9.5C4 9.77614 3.77614 10 3.5 10H0.5C0.223858 10 0 9.77614 0 9.5V5.5Z"/>
<path d="M6 0.5C6 0.223858 6.22386 0 6.5 0H9.5C9.77614 0 10 0.223858 10 0.5V9.5C10 9.77614 9.77614 10 9.5 10H6.5C6.22386 10 6 9.77614 6 9.5V0.5Z"/>
<path d="M12 9.5C12 9.22386 12.2239 9 12.5 9H15.5C15.7761 9 16 9.22386 16 9.5C16 9.77614 15.7761 10 15.5 10H12.5C12.2239 10 12 9.77614 12 9.5Z"/>
</svg>
