<svg width="16" height="1" viewBox="0 0 16 1" fill="currentColor" xmlns="http://www.w3.org/2000/svg">
<path d="M0 0.5C0 0.223858 0.223858 0 0.5 0H3.5C3.77614 0 4 0.223858 4 0.5C4 0.776142 3.77614 1 3.5 1H0.5C0.223858 1 0 0.776142 0 0.5Z"/>
<path d="M6 0.5C6 0.223858 6.22386 0 6.5 0H9.5C9.77614 0 10 0.223858 10 0.5C10 0.776142 9.77614 1 9.5 1H6.5C6.22386 1 6 0.776142 6 0.5Z"/>
<path d="M12 0.5C12 0.223858 12.2239 0 12.5 0H15.5C15.7761 0 16 0.223858 16 0.5C16 0.776142 15.7761 1 15.5 1H12.5C12.2239 1 12 0.776142 12 0.5Z"/>
<path d="M0 0.5C0 0.223858 0.223858 0 0.5 0H3.5C3.77614 0 4 0.223858 4 0.5C4 0.776142 3.77614 1 3.5 1H0.5C0.223858 1 0 0.776142 0 0.5Z"/>
<path d="M6 0.5C6 0.223858 6.22386 0 6.5 0H9.5C9.77614 0 10 0.223858 10 0.5C10 0.776142 9.77614 1 9.5 1H6.5C6.22386 1 6 0.776142 6 0.5Z"/>
<path d="M12 0.5C12 0.223858 12.2239 0 12.5 0H15.5C15.7761 0 16 0.223858 16 0.5C16 0.776142 15.7761 1 15.5 1H12.5C12.2239 1 12 0.776142 12 0.5Z"/>
</svg>
