<svg width="16" height="16" viewBox="0 0 16 16" fill="none" xmlns="http://www.w3.org/2000/svg">
<path d="M0 11.5C0 11.2239 0.223858 11 0.5 11H3.5C3.77614 11 4 11.2239 4 11.5V15.5C4 15.7761 3.77614 16 3.5 16H0.5C0.223858 16 0 15.7761 0 15.5V11.5Z" fill="black"/>
<path d="M6 6.5C6 6.22386 6.22386 6 6.5 6H9.5C9.77614 6 10 6.22386 10 6.5V15.5C10 15.7761 9.77614 16 9.5 16H6.5C6.22386 16 6 15.7761 6 15.5V6.5Z" fill="black"/>
<path d="M12 0.5C12 0.223858 12.2239 0 12.5 0H15.5C15.7761 0 16 0.223858 16 0.5V15.5C16 15.7761 15.7761 16 15.5 16H12.5C12.2239 16 12 15.7761 12 15.5V0.5Z" fill="black"/>
<path d="M0 11.5C0 11.2239 0.223858 11 0.5 11H3.5C3.77614 11 4 11.2239 4 11.5V15.5C4 15.7761 3.77614 16 3.5 16H0.5C0.223858 16 0 15.7761 0 15.5V11.5Z" fill="black"/>
<path d="M6 6.5C6 6.22386 6.22386 6 6.5 6H9.5C9.77614 6 10 6.22386 10 6.5V15.5C10 15.7761 9.77614 16 9.5 16H6.5C6.22386 16 6 15.7761 6 15.5V6.5Z" fill="black"/>
<path d="M12 0.5C12 0.223858 12.2239 0 12.5 0H15.5C15.7761 0 16 0.223858 16 0.5V15.5C16 15.7761 15.7761 16 15.5 16H12.5C12.2239 16 12 15.7761 12 15.5V0.5Z" fill="black"/>
</svg>
