<svg fill="none" height="16" viewBox="0 0 20 16" width="20" xmlns="http://www.w3.org/2000/svg"><g fill="currentColor"><path d="m7.28033 4.21967c-.29289-.29289-.76777-.29289-1.06066 0s-.29289.76777 0 1.06066l2.71967 2.71967-2.71967 2.7197c-.29289.2929-.29289.7677 0 1.0606s.76777.2929 1.06066 0l2.71967-2.71964 2.7197 2.71964c.2929.2929.7677.2929 1.0606 0s.2929-.7677 0-1.0606l-2.7196-2.7197 2.7196-2.71967c.2929-.29289.2929-.76777 0-1.06066s-.7677-.29289-1.0606 0l-2.7197 2.71967z"/><path clip-rule="evenodd" d="m2.75 0c-1.51878 0-2.75 1.23122-2.75 2.75v10.5c0 1.5188 1.23122 2.75 2.75 2.75h14.5c1.5188 0 2.75-1.2312 2.75-2.75v-10.5c0-1.51878-1.2312-2.75-2.75-2.75zm-1.25 2.75c0-.69036.55964-1.25 1.25-1.25h14.5c.6904 0 1.25.55964 1.25 1.25v10.5c0 .6904-.5596 1.25-1.25 1.25h-14.5c-.69036 0-1.25-.5596-1.25-1.25z" fill-rule="evenodd"/></g></svg>