<svg width="278" height="300" viewBox="0 0 278 300" fill="none" xmlns="http://www.w3.org/2000/svg">
<path d="M139 160C183.182 160 219 124.183 219 80C219 35.8172 183.182 0 139 0C94.8169 0 58.9997 35.8172 58.9997 80C58.9997 124.183 94.8169 160 139 160Z" fill="white" fill-opacity="0.25"/>
<path d="M76.6542 174.614C82.2666 171.818 88.8408 172.481 94.5193 175.141C108.025 181.466 123.1 185 138.999 185C154.899 185 169.973 181.466 183.48 175.141C189.158 172.481 195.732 171.818 201.345 174.614C241.703 194.719 270.985 233.736 277.591 280.062C279.15 290.997 270.045 300 259 300H18.9997C7.954 300 -1.1505 290.997 0.408683 280.062C7.01398 233.736 36.2966 194.72 76.6542 174.614Z" fill="white" fill-opacity="0.25"/>
</svg>
